<svg version="1" xmlns="http://www.w3.org/2000/svg" width="682.667" height="682.667" viewBox="0 0 512.000000 512.000000"><path d="M305.5 39.4c-15.4 3.5-28.6 13.9-35.6 28-5.2 10.6-6.7 19.6-5.1 30.8 3.7 25.7 25.8 44.8 51.6 44.8 15.1 0 26.3-4.7 37.1-15.4 24-23.7 19.7-62.6-9-81.4-10.1-6.6-27-9.6-39-6.8zM107.9 86.3C85.3 94 71 113.9 71 137.5c0 28.3 27.3 53.3 56 51.1 13.6-1 24.7-6.1 34-15.5 15.9-16.2 19.5-39.8 9.2-60.9-3.5-7.4-14.9-18.9-22.2-22.4-12.6-6.2-28.2-7.6-40.1-3.5z"/><path d="M189.2 116c-1.8.4-5.3 1.5-7.6 2.4l-4.4 1.7.5 11.2c.3 6.5 1.1 11.8 1.8 12.7 4.2 5.3 11.4 21.8 14.1 32.3.9 3.9 2.2 6.7 2.9 6.7 1.8 0 12.2-8 17.3-13.2l4.2-4.4-4.1-6.5c-2.2-3.5-5.7-8.2-7.7-10.4-2.8-3-2.4-2.8 1.6 1 3 2.7 7.4 7.6 9.8 10.7l4.5 5.8-4 5.3c-7.6 10.4-13.9 15-21.6 15.9-2.7.3-3 0-3.7-3.7-1.6-7.8-6.1-20.1-10.5-28.8-2.5-4.8-4.7-8.6-4.9-8.4-.3.2-1 2.4-1.7 4.7-1.2 4.2-1.1 4.6 3.3 13.4 5.5 11 8.5 23 10 39.6 2.1 24.3 5.8 36.3 13.7 45 4.6 5.2 7.4 5.5 4.3.4-6.3-10.1-9.1-20.6-11-41.3-.5-6.4-1.3-13-1.6-14.8l-.5-3.2 3.8 1.5c8.4 3.6 21.4.4 34-8.3l5.3-3.6 5.5 1.2c3 .7 6 .9 6.6.5 1.4-.8 1.3-.6-2.3 6.3-1.5 2.8-4 9.1-5.5 14-2.4 7.9-2.7 10.4-2.7 24.5-.1 9.8.3 16.1 1 16.8 1.2 1.2 17.6-6.7 28-13.5l6.2-4 .4-10c.4-9 .9-11.1 4.8-20.5 5.6-13.6 7-19 7-27.1 0-9.6-3.4-19.8-10.3-31.2-2.5-4.2-3.3-4.8-5.4-4.2-4.4 1.1-18.7 8.3-25.7 13-3.7 2.5-6.9 4.5-7.1 4.3-.1-.2-1.9-3.5-3.8-7.3-5.3-10.6-8.8-14.8-17.1-20.3-9.8-6.5-18.1-8.4-27.4-6.2zm71.2 50.2c-3.3 5.6-4.7 6.6-7 5.6-2.4-1.1-2.3-1.2 2.3-3.9 5.6-3.3 5.6-3.3 4.7-1.7z"/><path d="M276 130.9c0 .5 1.8 4 4 7.7 5.8 9.9 8 17.8 8 28.8 0 10.5-.6 13-6.8 28.6-4.1 10.3-4.6 12.4-4.8 20.5l-.2 9-9.3 6.3c-10.3 6.9-25.8 15.1-35.8 18.9-16.4 6.2-35.6 8.2-46.6 4.9-5.9-1.8-13-6.6-17.1-11.6l-2.9-3.5 4.5 3.7c7.6 6.1 18.5 9.8 29.1 9.8h4.9l-3.9-5c-4.3-5.5-7.6-13.3-9.5-22.5-1.1-5.8-1.4-6.2-8.1-11.3-15.9-12-36.2-19.7-54-20.4l-5.9-.3-1.8 9c-3.6 18.9-1.7 34.8 6.3 51 8 16.4 22.1 27.9 39.4 32 11 2.7 28.6 2.3 40.6-.8 10.6-2.8 23.1-8.6 31.7-14.8 8.8-6.2 28-22.6 35.2-30l6.5-6.7 1.8 3.7c2.1 4.2 9.2 12.6 8.2 9.6-.4-1.1-1.6-6.2-2.8-11.2-1.5-6.8-1.8-9.6-1-10.4.8-.8 1.4.4 2.3 4.7 1 5.2 4.8 18.3 5.5 19.2.2.3 7.5-3.9 9.2-5.2.2-.1-.7-2.7-1.8-5.7-6-15.5-1.2-48.3 9.7-66.9 2.2-3.9 8-10.8 14.1-16.9 6.4-6.4 9.5-10.1 8.1-9.7-1.3.4-5.2 1-8.8 1.3-7.5.6-8.5 1.3-17.2 12.2-11 13.8-18.4 32.2-19.6 49-.5 6.1-1.1 9.6-1.9 9.9-3.4 1.1.1-20.8 5.5-34.7 3.6-9.3 3.7-10 3.7-22.6 0-15.3-.5-17.5-4.2-19.7-1.5-.9-4.8-3.7-7.3-6.2-4.2-4.3-7-5.7-7-3.7z"/><path d="M346.5 140.2c-10.1 6-17.1 11.6-24.7 19.7-8.1 8.5-14.4 20.7-18.5 35.6-2.3 8.5-2.7 12-2.7 23 0 10.7.3 13.9 2 18 1.1 2.7 2.6 5 3.3 5 3.6 0 21.1-18.3 27.4-28.7 9.3-15.4 10-28 2.2-40.3l-1.9-3 2.7 2.4c7.4 6.7 9.7 18.7 5.6 29.8-8.2 21.9-38.6 49.2-61.4 54.9l-7 1.8 4 1.8c5.4 2.4 15.3 2.3 32.9-.3 20.9-3.1 35.4-7.1 47.1-12.9 11.4-5.6 15-8.7 21.1-18.1 9.5-14.7 13.4-28.8 11.5-42.1-2.5-17.9-13.4-35.5-28.6-46.3-3.4-2.5-6.6-4.5-7.1-4.5s-4 1.9-7.9 4.2zM148 186.7c-5 2.2-13 4.3-16.7 4.3-1.8 0-3.3.4-3.3 1 0 .5 1.8 1 3.9 1 5.9 0 17.1 2.6 26 6 8 3.1 22.8 11.5 26.6 15 3.8 3.6 3.9 3.2 1.9-11.1-.5-3.3-1.2-4-7.7-7.7-8.7-5-21.7-10.2-24.9-10.1-1.2 0-3.9.8-5.8 1.6zM223.5 191.5c-1.1.8-4.8 2.1-8.2 3-5 1.3-7.4 1.4-12 .6-3.1-.6-5.8-.9-6-.7-.8.8 2.8 27.7 4.7 34.6 2.7 9.7 3.8 12.5 7.3 18.2 3.3 5.5 4.7 5.8 14.2 3l6-1.8.8-12.5c1.1-19.6-.9-44.7-3.8-45.5-.5-.2-1.9.3-3 1.1z"/><path d="M267.5 248.5c-5.5 5.6-12 11.8-14.4 13.8l-4.5 3.7 1.6 3.3c2.6 5.5 10.4 14.2 18.5 20.7l7.7 6.3 7.6-.7c12.6-1 11.6.4 10.8-14.9-.4-7.3-1-13.7-1.2-14.3-.2-.6-3.8-1.4-8-1.8-4.1-.4-9-1.2-10.8-1.8-4.2-1.4-9-4.7-8.3-5.7.2-.5 3.5-1.1 7.3-1.4 5.7-.6 12.7-2.2 14-3.3.2-.1-1.4-2.5-3.6-5.3-2.3-2.8-4.4-6-4.7-7.1-.4-1.1-.9-1.9-1.3-1.9-.4.1-5.2 4.7-10.7 10.4zM348.8 256.7c-7.1 2.5-28.7 7.1-38.5 8.3-.2 0 .9 2.6 2.3 5.7 3.6 8.3 8.6 16.3 10.1 16.3 2.6 0 18.8-7 27.7-12 13.6-7.6 12.7-6.5 10.9-14.1-.9-3.5-1.9-6.7-2.2-7-.3-.3-4.9.9-10.3 2.8zM298.5 265.7c-1.9.4-2 .9-1.3 13.9.3 7.5.8 13.7 1 13.9.3.4 18.7-4.3 19.9-5 .4-.3-.8-3.1-2.7-6.2-1.8-3.1-4.4-8.2-5.6-11.5-2.2-5.6-2.4-5.8-5.8-5.7-1.9.1-4.4.4-5.5.6zM135.7 274.7c-1.4 2.3-3.8 16.9-4 23.8l-.2 7.9 7.5 1.8c4.1.9 12.5 2 18.5 2.4 11.4.6 30.2-.9 31.9-2.6.6-.6.3-3.4-1-7.7l-1.9-6.8-7.5-.6c-13.3-1.1-26.5-6.1-36-13.7-6.7-5.3-6.8-5.4-7.3-4.5zM247.6 279.8c-.8 1.6-2.7 5.1-4.1 7.8l-2.6 4.9 2.8 2.3c1.5 1.2 9.6 5.7 17.8 9.9 17 8.6 21.4 11.4 30.2 19l6.3 5.4 4.5-3.2c2.5-1.8 4.5-3.5 4.5-3.9 0-.8-18.5-14.7-30-22.5-9.4-6.4-18.9-14.3-23.3-19.3-3.5-3.9-4.2-4-6.1-.4z"/><path d="M345 284.2c-11.3 4.9-39.4 12.1-53.6 13.9l-10.2 1.3 10.2 6.9c28.6 19.6 43 32.7 69.4 62.7 7.5 8.5 18.1 20.4 23.6 26.5 20.2 22.4 41.5 51.7 50.9 70.2 2.8 5.6 5.5 10.3 6 10.3 1.7 0-.1-32.7-2.8-52.2-4.1-28.4-10-40.5-35.4-72.7-18.6-23.5-32-43.2-43-63.4-2.3-4.2-4.5-7.7-4.9-7.6-.4 0-5 1.9-10.2 4.1zM224.3 285.4c-3.3 1.8-9.3 4-13.3 5l-7.2 1.9.7 5.1c.3 2.8 1 5.4 1.4 5.9.8.8 21.3-9.2 25.4-12.5 2.6-2.1 2.7-2.5 1.6-5.6-.6-1.7-1.4-3.1-1.7-3-.4 0-3.5 1.5-6.9 3.2zM231.5 295.7c-6.5 4.5-17.3 9.6-28.3 13.3-4.8 1.5-8.6 3.3-8.5 3.8.1.6.6 5.4.9 10.7l.7 9.6 9.1 5.5c5 3.1 14.1 8.3 20.1 11.6 20 10.9 30.8 19.3 44.5 34.4 9.9 10.9 19.8 27.7 24.5 41.4 3 8.9 5.5 25.1 5.5 36 0 9.4.8 9.9 5.6 2.9 7.7-11.5 12.9-41.2 11.3-65.5-1.3-20.9-8.4-45.5-17.1-59.4-1.5-2.5-3.5-5.9-4.3-7.6-3.1-6.6-21.1-19.9-36.5-26.9-9.3-4.2-17.7-9.2-19.9-11.8-1.8-2.2-1.7-2.2-7.6 2zM190.5 295.4c.3 1.2 1.1 4.2 1.7 6.8 1.2 5.2 2.1 5.6 7.7 3.7 2.6-.9 3.2-1.6 2.7-3.3-.3-1.1-.6-3.8-.6-5.9v-3.8l-6.1.2c-5.6.2-6 .4-5.4 2.3zM187.5 313.1c-8.5 2.5-26.5 4.1-38.5 3.5-6.9-.3-13.7-.8-15.2-1.2-2.6-.6-2.6-.5-2.1 3.7.3 2.4 2.3 13.6 4.5 24.9 6.7 33.8 6.3 51.3-1.4 71.4-6.6 17.2-15.8 30.7-31.7 46.6-9.6 9.7-11.1 11.6-9.3 11.8 9.7 1.4 45.5-18 62.4-33.7 17-15.9 31.8-44.7 36.2-70.6 1.9-10.7 2.1-35.3.5-47.5-.7-4.7-1.5-8.8-1.8-9.1-.3-.4-1.9-.2-3.6.2z"/><path d="M225.5 356.8c-.3 2-.8 4.6-1 5.7-.7 3.2 1.4 20.1 3.7 30 3.4 14.9 10.8 32.7 18.6 44.9 5.5 8.7 19.6 25.6 21.2 25.6.4 0-.4-4.2-1.6-9.3-5.6-22.1-6.8-30.6-6.9-46.7 0-10.1.5-17.4 1.4-20.9l1.4-5.5-9-8.6c-9.1-8.9-17-14.8-23.5-17.5l-3.7-1.5-.6 3.8z"/></svg>